PathFileType	4	(X/Y/Z)	OpenSim_Sub01_EMGStiffKnee_Accel.trc
DataRate	CameraRate	NumFrames	NumMarkers	Units	OrigDataRate	OrigDataStartFrame	OrigNumFrames
100	100	41	8	m	100	2088	5567
Frame#	Time	torso_imu_offset_imu	pelvis_imu_offset_imu	tibia_r_imu_offset_imu	femur_r_imu_offset_imu	tibia_l_imu_offset_imu	femur_l_imu_offset_imu	toes_r_imu_offset_imu	toes_l_imu_offset_imu
				X1	Y1	Z1	X2	Y2	Z2	X3	Y3	Z3	X4	Y4	Z4	X5	Y5	Z5	X6	Y6	Z6	X7	Y7	Z7	X8		Y8	Z8	

2088	20.87000000	8.95822341	1.07331441	5.77618075	9.57836757	0.63078435	3.74423152	7.21781386	7.25425811	-1.94876616	11.48813135	2.25987984	1.43723790	9.54103978	-1.14620726	-0.42099459	10.38016630	-0.64064643	-2.48918522	3.09432755	-7.97920188	23.28222322	5.55117359	1.36520447	11.14784364
2089	20.88000000	9.34284164	0.80491443	5.78345255	9.69393191	0.04799265	3.94635409	5.81331374	6.69361404	-0.39599156	11.95132039	1.27223618	1.13982297	9.88686422	-1.30955038	-0.84930972	10.67013306	1.78382669	-1.95733834	-2.79834649	-6.66091712	17.31540850	5.48602482	1.56256154	11.07487905
2090	20.89000000	9.57175874	0.52218536	5.81105137	9.65035446	-0.39611231	4.06282401	4.56089039	5.99952509	1.04214537	11.99804319	0.43230879	0.87446605	10.14287146	-1.95916914	-1.17534874	10.52688460	3.61406483	-1.57754744	-6.01445056	-5.53165702	11.80045384	5.49222282	1.70631494	10.94463740
2091	20.90000000	9.51257148	0.27547682	5.85484980	9.53026372	-0.71671902	4.04938419	3.89809489	5.50112116	1.67010375	11.46325313	-0.04107813	0.77842993	9.93316992	-2.63291239	-1.23019528	9.98393974	4.39432683	-1.33246857	-4.78413880	-5.55341943	10.88226978	5.55904864	1.74503973	10.82045259
2092	20.91000000	9.28281660	0.09807264	5.86846909	9.39383281	-0.96122185	3.95869645	3.69883575	4.99674655	1.65673823	10.62203420	-0.15952198	0.83707470	9.59510821	-2.98191422	-1.08396829	9.31518935	4.24676722	-1.20024795	-1.64718331	-6.00529035	12.34518119	5.61748950	1.71840351	10.73900965
2093	20.92000000	9.03880447	0.01759125	5.80216354	9.29263066	-1.17639856	3.85766817	3.74656030	4.21342832	1.32717822	9.82017251	0.01489366	1.00597916	9.56779508	-2.70662563	-0.84894226	8.82790731	3.40896680	-1.15940342	0.23793149	-5.90864687	12.96862674	5.59432164	1.68030185	10.72863663
2094	20.93000000	8.82557404	0.02409104	5.67269335	9.21160346	-1.31070607	3.75824388	4.03042182	3.27945310	0.95360316	9.24378018	0.30210583	1.21533247	9.83984966	-1.93203031	-0.60689058	8.66390631	2.24692231	-1.20648939	0.37717196	-5.08442060	12.09203098	5.51457808	1.64552256	10.76633852
2095	20.94000000	8.60252582	0.07872537	5.54799618	9.08443198	-1.23696031	3.63006913	4.69782241	2.63189868	0.76735238	8.95601207	0.43131346	1.37580440	10.05319628	-1.10985611	-0.41609583	8.83756674	1.22537088	-1.35191917	0.32722325	-3.96898575	11.02519606	5.47889675	1.59875801	10.78962919
2096	20.95000000	8.35145798	0.15347642	5.47220073	8.87128530	-0.88787280	3.45695066	5.76222388	2.58415440	0.89368127	8.96386789	0.23906813	1.43145113	9.96425495	-0.61794479	-0.31963328	9.28046797	0.65963853	-1.57236202	1.19242752	-2.94025215	10.72434766	5.54563258	1.53699126	10.75820539
2097	20.96000000	8.12726739	0.25471286	5.41477754	8.61495884	-0.37991188	3.26800721	6.82699916	3.05847656	1.14574673	9.11688489	-0.11215307	1.42702607	9.69616039	-0.58961676	-0.31718635	9.68789298	0.41354072	-1.74316007	2.57627789	-2.15536557	10.94448038	5.64172100	1.49602648	10.70069707
2098	20.97000000	7.99534842	0.39299936	5.33510136	8.37338801	0.13799270	3.09902578	7.44813929	3.89373737	1.29056253	9.24112849	-0.40771149	1.42263116	9.43208732	-1.09593677	-0.39950768	9.73412760	0.27695878	-1.73229758	3.83357478	-1.71612085	11.23413683	5.67591658	1.51632074	10.65627578
2099	20.98000000	7.97594755	0.54655835	5.24801975	8.20246779	0.53954120	2.96021783	7.60714018	4.76317484	1.26810066	9.24706300	-0.55412436	1.42945695	9.23910011	-1.95288955	-0.54375899	9.43297423	0.18256902	-1.57797703	4.74992061	-1.50682506	11.37583786	5.64849603	1.60055667	10.63114813
2100	20.99000000	8.05454945	0.66872738	5.21106447	8.15649634	0.71589485	2.84210956	7.61299461	5.21266038	1.15147775	9.11015058	-0.55117780	1.42105371	9.09488429	-2.78014910	-0.71664228	9.05954007	0.17295281	-1.44939638	5.44256129	-1.24447559	11.33225761	5.63017540	1.72233559	10.60614486
2101	21.00000000	8.20659218	0.72851449	5.25774503	8.25512052	0.61226845	2.73847689	7.70657733	4.96911416	1.01861122	8.84386083	-0.40483553	1.38567720	8.97908031	-3.25910508	-0.88808425	8.82173383	0.26857199	-1.46765581	6.05223228	-0.79151308	11.11892841	5.67407281	1.85121577	10.56227472
2102	21.01000000	8.38031822	0.74339343	5.34692816	8.41514552	0.33315806	2.65425659	7.90132351	4.30716384	0.95150679	8.56963142	-0.13228845	1.35815632	8.88396909	-3.26953557	-1.03839292	8.70781629	0.41576144	-1.60092401	6.76411721	-0.45533965	10.89467657	5.77563157	1.94696472	10.48301491
2103	21.02000000	8.52106460	0.73872192	5.42631263	8.53980815	0.00882377	2.59551445	8.17018684	3.59678409	1.02327691	8.41920736	0.24478626	1.37923923	8.80680364	-2.74960325	-1.14866176	8.66692653	0.55072443	-1.78824793	7.74945381	-0.59748219	10.83165485	5.91653874	1.97000715	10.35659748
2104	21.03000000	8.60592861	0.72374899	5.48298543	8.61382593	-0.28560701	2.55433360	8.50959251	3.11943355	1.16265432	8.37987656	0.66864273	1.44940291	8.78426512	-1.96225159	-1.18301766	8.67046540	0.66313194	-1.95600028	8.84784572	-1.15838329	10.90500704	6.03219984	1.91768669	10.23557234
2105	21.04000000	8.63646178	0.69532643	5.53434846	8.68462939	-0.51745732	2.51204019	8.93401941	3.08832634	1.18730024	8.32776516	1.05377847	1.53812792	8.88334898	-1.42030557	-1.09254616	8.70698251	0.78379997	-2.02083273	9.64375168	-1.75443750	10.93825988	6.02244032	1.81576123	10.22196139
2106	21.05000000	8.62159736	0.65437864	5.59041563	8.78671164	-0.66732295	2.45881870	9.43893841	3.57598598	1.00787922	8.19129823	1.32603310	1.62001917	9.12200206	-1.46337774	-0.85396801	8.78080648	0.92536109	-1.94644754	9.91100385	-2.13111854	10.80520498	5.84926246	1.68279953	10.36595501
2107	21.06000000	8.59033367	0.61487896	5.63693090	8.91132973	-0.75199407	2.41199760	9.96195955	4.24210124	0.81989766	8.06279984	1.44707000	1.68727734	9.37010995	-1.89729373	-0.52117378	8.94184118	1.04327214	-1.83709712	10.00564463	-2.44221728	10.54058099	5.66214174	1.51383645	10.55994877
2108	21.07000000	8.57460696	0.59284710	5.65675102	9.04189732	-0.79421830	2.39186812	10.42997933	4.68385188	0.85613248	8.05757842	1.38649087	1.73361656	9.48073030	-2.43754516	-0.16419167	9.23984064	1.08573250	-1.81315604	10.37059609	-2.90495834	10.20654104	5.63238598	1.30290012	10.67513926
2109	21.08000000	8.59480541	0.59882350	5.65667256	9.16407659	-0.80575611	2.38796096	10.76965524	4.70517259	1.11904532	8.18144334	1.13357460	1.72671992	9.46472449	-2.92463899	0.11896768	9.59623617	1.05051982	-1.84741288	11.13811817	-3.55614542	9.83019239	5.73934984	1.09405985	10.70204962
2110	21.09000000	8.66242052	0.63912671	5.66191448	9.26526572	-0.78990960	2.36613801	10.90750611	4.26925867	1.43380518	8.35592584	0.69276067	1.61426732	9.45439945	-3.29533471	0.20880262	9.83374031	0.97356054	-1.79908878	12.20131070	-4.29365371	9.41166911	5.81467084	0.96987879	10.72303768
2111	21.10000000	8.77950867	0.71466227	5.68952609	9.33971653	-0.74918192	2.30579767	10.83025087	3.47646095	1.62703056	8.51958450	0.08625906	1.39064796	9.54265866	-3.50949976	0.05159398	9.85781550	0.86957378	-1.58359985	13.43148175	-4.95849603	8.95724247	5.75094129	0.97688214	10.79205688
2112	21.11000000	8.92077056	0.81057427	5.73087306	9.40191317	-0.68434866	2.22837025	10.70349883	2.82250400	1.54319847	8.66801505	-0.61207536	1.19057296	9.69603851	-3.58830785	-0.20926739	9.82735474	0.68734702	-1.29202160	14.65346718	-5.23334213	8.49348172	5.63316664	1.05156885	10.87163980
2113	21.12000000	9.05788581	0.90910805	5.77271397	9.46786265	-0.59614273	2.16163745	10.71388370	2.84327339	1.04768061	8.80607476	-1.32794534	1.16031202	9.85749781	-3.56372802	-0.40274668	9.93268431	0.37256402	-1.04570308	15.69152652	-4.80372339	8.03947347	5.57555026	1.11352932	10.91049062
2114	21.13000000	9.19300742	0.99273803	5.80392317	9.52038798	-0.48943660	2.11213904	10.86773971	3.58181210	0.26909038	8.91941163	-2.12330564	1.23089514	9.96678934	-3.45966022	-0.48946338	10.13337033	0.00686293	-0.93302671	16.48985774	-3.83603370	7.44618935	5.59688702	1.13373086	10.90330797
2115	21.14000000	9.35173269	1.04412169	5.81500747	9.51678440	-0.37228970	2.07006431	11.03259017	4.70175030	-0.46135601	8.97888879	-3.16489206	1.16774792	9.96124181	-3.29379266	-0.53137030	10.21141553	-0.22350624	-1.01695325	17.08501803	-2.86660648	6.43524191	5.64253655	1.12269335	10.88019264
2116	21.15000000	9.54143589	1.05481123	5.80136600	9.43677118	-0.25315860	2.02728660	11.05105367	5.82834600	-0.86192266	8.95820857	-4.48145212	0.84819278	9.83633705	-3.08340466	-0.57391013	10.04540818	-0.19079526	-1.30148865	17.55627721	-2.13706323	4.79945139	5.66980399	1.09523542	10.86624193
2117	21.16000000	9.71355107	1.04277490	5.77281046	9.32864991	-0.14143648	1.98193312	10.70235650	6.50183787	-0.81338671	8.84063985	-5.68370297	0.49470272	9.76053978	-2.84503537	-0.60572169	9.81450511	0.05091475	-1.61740252	18.10276290	-0.98503537	2.55311374	5.67710271	1.07592597	10.86897963
2118	21.17000000	9.81244621	1.02966264	5.74224325	9.25151509	-0.04808994	1.93267801	9.78712003	6.27609205	-0.25890746	8.61898274	-6.33179742	0.37668057	9.91787535	-2.59904542	-0.60621980	9.73957186	0.41546370	-1.77397500	18.92748036	1.32750363	-0.24714644	5.67060606	1.08836425	10.89187916
2119	21.18000000	9.83151434	1.01913596	5.72894205	9.23622655	-0.00503796	1.86907872	8.60146905	5.14408152	0.37451223	8.40218773	-6.38574433	0.51090593	10.24665884	-2.42502412	-0.57394492	9.83406070	0.83971196	-1.73818484	19.95987853	4.16983055	-3.52403732	5.65887761	1.11466733	10.92642413
2120	21.19000000	9.80188195	1.00101537	5.75707971	9.29190139	-0.06030861	1.77366998	7.82274904	3.43696477	0.28771576	8.38851107	-6.11332001	0.71969103	10.49614389	-2.44809313	-0.52216067	9.95179254	1.27824376	-1.59839872	20.91883414	5.85810313	-7.18413790	5.65231157	1.10504268	10.95487945
2121	21.20000000	9.74751889	0.97347174	5.83436850	9.41689933	-0.23569082	1.62267222	7.84776658	1.70716525	-0.91675449	8.63651193	-5.73380276	0.82355633	10.52592881	-2.71229299	-0.46484839	9.98997169	1.68959078	-1.43439389	21.53368118	5.40755053	-10.84230968	5.64895672	1.04001092	10.97399951
2122	21.21000000	9.66824556	0.96054638	5.91923511	9.57927746	-0.47377473	1.37408019	8.21059013	1.13872867	-2.41429343	8.78282440	-5.29883851	0.65256245	10.53794330	-3.01725777	-0.41699662	9.98691432	2.04265961	-1.29114648	21.58092172	3.99113326	-13.24783133	5.61003852	0.99260470	11.02429765
2123	21.22000000	9.56657176	0.98778678	5.96295832	9.74608081	-0.70096295	0.99749896	8.32315068	2.87961463	-3.19558047	8.42992251	-4.81857850	0.05609892	10.77685955	-3.13169549	-0.38973667	10.00598894	2.30266750	-1.20476442	20.82729476	3.07060929	-13.06002279	5.49549579	1.04398226	11.14874630
2124	21.23000000	9.55205613	1.03170916	5.94620759	9.95304076	-0.82054242	0.68667859	8.15653810	5.79049412	-2.86814484	7.83636752	-4.14603155	-0.85361865	11.17987078	-3.03770031	-0.33369777	10.09504617	2.35092671	-1.17493503	18.76296820	2.45980837	-9.98672171	5.34788425	1.14095671	11.30605722
2125	21.24000000	9.81658917	1.03108847	5.87229794	10.28874209	-0.71803487	0.80778954	8.11231285	6.97209401	-1.51451272	7.76557404	-3.01337682	-1.76202397	11.44758883	-2.88158276	-0.15298141	10.28998458	2.00426917	-1.17333228	14.66606297	0.70464993	-4.54313693	5.27331535	1.12698354	11.39012168
2126	21.25000000	10.45524520	0.92784761	5.77240249	10.81449699	-0.31739249	1.56314752	8.64149337	4.56157406	0.57846273	8.72346182	-1.33388043	-2.31395697	11.42916545	-2.74924422	0.18723785	10.61794903	1.22367834	-1.20174043	8.94784906	-2.79502366	2.44256998	5.32257211	0.92447792	11.35092588
2127	21.26000000	11.26912372	0.67614814	5.75874171	11.50653949	0.34188161	2.65500772	10.30915561	-0.08970502	2.55309322	10.41223618	0.43187009	-2.04910316	11.43321032	-2.53453328	0.53675527	11.08098699	0.40340134	-1.35355540	5.40286779	-6.00509174	9.27403455	5.37717562	0.69837766	11.31009235
2128	21.27000000	12.01252968	0.24102384	5.94659088	12.31782554	1.19201951	3.70443983	13.58463583	-5.02102501	3.49033293	12.37547213	1.70704741	-0.56859276	11.82456772	-2.10598267	0.72076129	11.66777447	-0.00771324	-1.72873387	8.04199206	-6.56820318	14.16560635	5.30109119	0.64555332	11.40587310
